<?xml version="1.0" encoding="UTF-8"?>
<!DOCTYPE svg PUBLIC "-//W3C//DTD SVG 1.1//EN" "http://www.w3.org/Graphics/SVG/1.1/DTD/svg11.dtd">
<svg xmlns="http://www.w3.org/2000/svg" version="1.1" width="500px" height="500px" style="shape-rendering:geometricPrecision; text-rendering:geometricPrecision; image-rendering:optimizeQuality; fill-rule:evenodd; clip-rule:evenodd" xmlns:xlink="http://www.w3.org/1999/xlink">
<g><path style="opacity:1" fill="#010101" d="M -0.5,-0.5 C 166.167,-0.5 332.833,-0.5 499.5,-0.5C 499.5,166.167 499.5,332.833 499.5,499.5C 332.833,499.5 166.167,499.5 -0.5,499.5C -0.5,332.833 -0.5,166.167 -0.5,-0.5 Z"/></g>
<g><path style="opacity:1" fill="#f7f7f7" d="M 36.5,121.5 C 43.2701,128.771 50.2701,135.938 57.5,143C 90.2465,166.034 126.246,182.034 165.5,191C 169.943,196.725 172.609,203.225 173.5,210.5C 140.288,202.708 108.621,190.875 78.5,175C 62.3333,165.5 49.5,152.667 40,136.5C 38.0503,131.69 36.8836,126.69 36.5,121.5 Z"/></g>
<g><path style="opacity:1" fill="#f7f7f7" d="M 460.5,121.5 C 461.497,121.47 462.164,121.97 462.5,123C 459.894,137.542 452.894,149.542 441.5,159C 426.67,171.258 410.336,181.258 392.5,189C 370.385,196.943 348.052,204.11 325.5,210.5C 326.486,204.022 328.486,197.855 331.5,192C 361.663,183.613 390.663,172.28 418.5,158C 432.206,150.553 444.373,141.053 455,129.5C 457.054,126.953 458.887,124.286 460.5,121.5 Z"/></g>
<g><path style="opacity:1" fill="#f8f8f8" d="M 162.5,166.5 C 162.897,165.475 163.563,165.308 164.5,166C 182.333,183.167 200.167,200.333 218,217.5C 219.357,224.104 216.857,227.937 210.5,229C 208.63,227.634 206.63,226.467 204.5,225.5C 202.083,230.007 201.083,234.84 201.5,240C 202.004,256.025 206.671,270.692 215.5,284C 214.5,284.667 213.5,284.667 212.5,284C 196.005,274.515 185.172,260.682 180,242.5C 178.544,234.918 179.877,227.918 184,221.5C 184.667,217.167 184.667,212.833 184,208.5C 177.074,194.314 169.908,180.314 162.5,166.5 Z"/></g>
<g><path style="opacity:1" fill="#f8f8f8" d="M 295.5,254.5 C 296.117,254.389 296.617,254.056 297,253.5C 297.818,247.651 297.652,241.985 296.5,236.5C 296.637,232.821 295.971,229.321 294.5,226C 291.396,227.54 288.063,228.54 284.5,229C 283.023,226.555 281.19,224.388 279,222.5C 278.333,221.5 278.333,220.5 279,219.5C 297.64,201.528 316.307,183.528 335,165.5C 335.167,165.833 335.333,166.167 335.5,166.5C 328.03,181.441 320.863,196.441 314,211.5C 313.28,217.623 314.614,223.289 318,228.5C 319.124,237.112 318.124,245.445 315,253.5C 308.052,266.949 297.885,277.282 284.5,284.5C 284.167,284.167 283.833,283.833 283.5,283.5C 289.054,274.512 293.054,264.846 295.5,254.5 Z"/></g>
<g><path style="opacity:1" fill="#f6f6f6" d="M 88.5,192.5 C 116.83,201.837 145.163,211.337 173.5,221C 171.419,225.164 169.086,229.164 166.5,233C 159.765,231.988 153.098,230.321 146.5,228C 134.565,223.466 122.565,219.133 110.5,215C 101.027,209.518 93.6933,202.018 88.5,192.5 Z"/></g>
<g><path style="opacity:1" fill="#f7f7f7" d="M 406.5,192.5 C 407.873,192.343 409.207,192.51 410.5,193C 403.112,205.061 392.779,213.395 379.5,218C 364.267,223.449 348.933,228.616 333.5,233.5C 330.78,230.422 328.28,227.089 326,223.5C 325.316,222.216 325.483,221.049 326.5,220C 353.51,211.426 380.177,202.259 406.5,192.5 Z"/></g>
<g><path style="opacity:1" fill="#a3a3a3" d="M 231.5,221.5 C 243.34,220.175 255.34,220.175 267.5,221.5C 267.376,222.107 267.043,222.44 266.5,222.5C 255.012,221.505 243.345,221.172 231.5,221.5 Z"/></g>
<g><path style="opacity:1" fill="#f4f4f4" d="M 231.5,221.5 C 243.345,221.172 255.012,221.505 266.5,222.5C 265.847,223.807 265.18,225.14 264.5,226.5C 261.5,227.167 258.5,227.833 255.5,228.5C 256.309,230.071 256.643,231.738 256.5,233.5C 259.898,233.18 263.232,233.513 266.5,234.5C 265.667,236.167 264.833,237.833 264,239.5C 261.853,240.113 259.686,240.779 257.5,241.5C 254.679,249.651 249.012,254.651 240.5,256.5C 246.972,266.138 253.639,275.638 260.5,285C 257.167,285.667 253.833,285.667 250.5,285C 244.366,275.9 237.866,267.067 231,258.5C 230.503,255.854 230.336,253.187 230.5,250.5C 238.827,252.58 244.827,249.913 248.5,242.5C 249.404,241.791 249.737,240.791 249.5,239.5C 242.646,239.824 235.979,239.491 229.5,238.5C 229.703,236.956 230.37,235.622 231.5,234.5C 237.138,233.67 242.804,233.17 248.5,233C 247.023,230.852 245.023,229.518 242.5,229C 237.849,228.101 233.182,227.268 228.5,226.5C 229.763,224.971 230.763,223.305 231.5,221.5 Z"/></g>
<g><path style="opacity:1" fill="#f5f5f5" d="M 173.5,257.5 C 173.44,258.043 173.107,258.376 172.5,258.5C 169.979,257.215 167.313,256.548 164.5,256.5C 146.377,252.438 129.377,245.604 113.5,236C 111.333,233.833 109.167,231.667 107,229.5C 106.312,228.668 106.479,228.002 107.5,227.5C 126.739,232.634 146.072,237.467 165.5,242C 168.833,246.833 171.5,251.999 173.5,257.5 Z"/></g>
<g><path style="opacity:1" fill="#f3f3f3" d="M 388.5,227.5 C 389.978,227.238 391.311,227.571 392.5,228.5C 385.833,235.325 378.166,240.825 369.5,245C 361.274,248.279 352.941,251.279 344.5,254C 337.967,255.122 331.634,256.955 325.5,259.5C 325.167,259.167 324.833,258.833 324.5,258.5C 326.87,253.953 329.037,249.286 331,244.5C 332.214,242.951 333.714,241.785 335.5,241C 353.396,236.943 371.063,232.443 388.5,227.5 Z"/></g>
<g><path style="opacity:1" fill="#7d7d7d" d="M 229.5,238.5 C 235.979,239.491 242.646,239.824 249.5,239.5C 249.737,240.791 249.404,241.791 248.5,242.5C 242.217,240.857 235.55,239.857 228.5,239.5C 228.624,238.893 228.957,238.56 229.5,238.5 Z"/></g>
<g><path style="opacity:1" fill="#a8a8a8" d="M 296.5,236.5 C 297.652,241.985 297.818,247.651 297,253.5C 296.617,254.056 296.117,254.389 295.5,254.5C 296.307,248.536 296.64,242.536 296.5,236.5 Z"/></g>
<g><path style="opacity:1" fill="#939393" d="M 164.5,256.5 C 167.313,256.548 169.979,257.215 172.5,258.5C 173.107,258.376 173.44,258.043 173.5,257.5C 174.751,258.472 174.418,259.139 172.5,259.5C 169.584,258.866 166.918,257.866 164.5,256.5 Z"/></g>
<g><path style="opacity:1" fill="#5a5a5a" d="M 443.5,304.5 C 449.013,303.184 454.68,303.184 460.5,304.5C 460.376,305.107 460.043,305.44 459.5,305.5C 454.36,304.512 449.026,304.179 443.5,304.5 Z"/></g>
<g><path style="opacity:1" fill="#ededed" d="M 38.5,304.5 C 51.1667,304.5 63.8333,304.5 76.5,304.5C 76.5,308.5 76.5,312.5 76.5,316.5C 67.5,316.5 58.5,316.5 49.5,316.5C 49.5,318.167 49.5,319.833 49.5,321.5C 55.8333,321.5 62.1667,321.5 68.5,321.5C 68.7373,322.791 68.404,323.791 67.5,324.5C 60.5,324.5 53.5,324.5 46.5,324.5C 46.5,320.833 46.5,317.167 46.5,313.5C 54.8333,313.5 63.1667,313.5 71.5,313.5C 73.3079,312.082 73.9746,310.082 73.5,307.5C 62.6536,307.172 51.9869,307.506 41.5,308.5C 41.5,317.833 41.5,327.167 41.5,336.5C 51.9869,337.494 62.6536,337.828 73.5,337.5C 73.5,335.5 73.5,333.5 73.5,331.5C 64.4355,332.136 55.7688,331.47 47.5,329.5C 56.8333,329.5 66.1667,329.5 75.5,329.5C 75.5,332.833 75.5,336.167 75.5,339.5C 63.1667,339.5 50.8333,339.5 38.5,339.5C 38.5,327.833 38.5,316.167 38.5,304.5 Z"/></g>
<g><path style="opacity:1" fill="#e6e6e6" d="M 129.5,304.5 C 133.167,304.5 136.833,304.5 140.5,304.5C 140.334,311.175 140.5,317.842 141,324.5C 146.354,332.488 151.521,332.488 156.5,324.5C 158.141,318.553 159.141,312.22 159.5,305.5C 160.496,311.798 160.83,318.132 160.5,324.5C 159.105,329.044 156.105,332.044 151.5,333.5C 146.006,333.5 141.84,331.167 139,326.5C 137.584,320.285 137.084,313.952 137.5,307.5C 135.833,307.5 134.167,307.5 132.5,307.5C 132.177,313.69 132.51,319.69 133.5,325.5C 134.489,331.952 138.155,336.118 144.5,338C 152.266,339.473 158.266,336.973 162.5,330.5C 163.558,329.4 164.392,328.066 165,326.5C 165.5,319.508 165.666,312.508 165.5,305.5C 166.209,304.596 167.209,304.263 168.5,304.5C 168.666,311.508 168.5,318.508 168,325.5C 165.932,334.401 160.432,339.735 151.5,341.5C 140.239,341.624 133.073,336.29 130,325.5C 129.5,318.508 129.334,311.508 129.5,304.5 Z"/></g>
<g><path style="opacity:1" fill="#f0f0f0" d="M 176.5,304.5 C 180.167,304.5 183.833,304.5 187.5,304.5C 187.826,313.349 187.493,322.016 186.5,330.5C 184.535,323.24 183.868,315.573 184.5,307.5C 182.833,307.5 181.167,307.5 179.5,307.5C 178.506,317.319 178.173,327.319 178.5,337.5C 181.388,336.99 183.721,337.656 185.5,339.5C 182.5,339.5 179.5,339.5 176.5,339.5C 176.5,327.833 176.5,316.167 176.5,304.5 Z"/></g>
<g><path style="opacity:1" fill="#f0f0f0" d="M 196.5,304.5 C 208.833,304.5 221.167,304.5 233.5,304.5C 233.815,308.371 233.482,312.038 232.5,315.5C 229.833,315.5 227.167,315.5 224.5,315.5C 224.5,314.5 224.5,313.5 224.5,312.5C 226.167,312.5 227.833,312.5 229.5,312.5C 230.451,311.081 230.784,309.415 230.5,307.5C 219.986,307.172 209.653,307.506 199.5,308.5C 199.5,309.5 199.5,310.5 199.5,311.5C 203.298,312.483 207.298,312.817 211.5,312.5C 211.5,320.833 211.5,329.167 211.5,337.5C 213.833,337.5 216.167,337.5 218.5,337.5C 217.866,329.097 218.533,321.097 220.5,313.5C 220.5,322.167 220.5,330.833 220.5,339.5C 216.833,339.5 213.167,339.5 209.5,339.5C 209.5,331.167 209.5,322.833 209.5,314.5C 205.167,314.5 200.833,314.5 196.5,314.5C 196.5,311.167 196.5,307.833 196.5,304.5 Z"/></g>
<g><path style="opacity:1" fill="#f0f0f0" d="M 292.5,304.5 C 305.167,304.5 317.833,304.5 330.5,304.5C 330.815,308.371 330.482,312.038 329.5,315.5C 327.167,315.5 324.833,315.5 322.5,315.5C 322.5,314.5 322.5,313.5 322.5,312.5C 323.5,312.5 324.5,312.5 325.5,312.5C 327.256,311.448 327.923,309.781 327.5,307.5C 316.833,307.5 306.167,307.5 295.5,307.5C 295.216,309.415 295.549,311.081 296.5,312.5C 300.167,312.5 303.833,312.5 307.5,312.5C 307.5,320.833 307.5,329.167 307.5,337.5C 309.833,337.5 312.167,337.5 314.5,337.5C 314.169,329.472 314.502,321.472 315.5,313.5C 316.498,322.141 316.831,330.808 316.5,339.5C 312.833,339.5 309.167,339.5 305.5,339.5C 305.826,331.316 305.492,323.316 304.5,315.5C 300.5,315.5 296.5,315.5 292.5,315.5C 292.5,311.833 292.5,308.167 292.5,304.5 Z"/></g>
<g><path style="opacity:1" fill="#c3c3c3" d="M 375.5,304.5 C 379.702,304.183 383.702,304.517 387.5,305.5C 383.833,305.5 380.167,305.5 376.5,305.5C 376.5,316.833 376.5,328.167 376.5,339.5C 379.5,339.5 382.5,339.5 385.5,339.5C 386.08,335.351 385.414,331.684 383.5,328.5C 384.209,327.596 385.209,327.263 386.5,327.5C 387.097,332.294 386.43,336.627 384.5,340.5C 381.5,340.5 378.5,340.5 375.5,340.5C 375.5,328.5 375.5,316.5 375.5,304.5 Z"/></g>
<g><path style="opacity:1" fill="#434343" d="M 402.5,304.5 C 402.821,310.026 402.488,315.36 401.5,320.5C 400.833,320.5 400.5,320.167 400.5,319.5C 401.167,314.5 401.833,309.5 402.5,304.5 Z"/></g>
<g><path style="opacity:1" fill="#eeeeee" d="M 413.5,339.5 C 409.486,339.666 405.486,339.499 401.5,339C 396.375,332.207 390.875,325.707 385,319.5C 384.517,318.552 384.351,317.552 384.5,316.5C 385.822,316.33 386.989,316.663 388,317.5C 393.001,323.998 398.167,330.331 403.5,336.5C 405.948,337.473 408.615,337.806 411.5,337.5C 411.5,327.5 411.5,317.5 411.5,307.5C 409.5,307.5 407.5,307.5 405.5,307.5C 405.666,314.841 405.5,322.174 405,329.5C 399.188,322.054 393.022,314.887 386.5,308C 383.633,307.199 380.966,307.366 378.5,308.5C 378.5,317.833 378.5,327.167 378.5,336.5C 379.919,337.451 381.585,337.784 383.5,337.5C 383.5,334.5 383.5,331.5 383.5,328.5C 385.414,331.684 386.08,335.351 385.5,339.5C 382.5,339.5 379.5,339.5 376.5,339.5C 376.5,328.167 376.5,316.833 376.5,305.5C 380.167,305.5 383.833,305.5 387.5,305.5C 391.805,310.141 396.139,314.807 400.5,319.5C 400.5,320.167 400.833,320.5 401.5,320.5C 401.56,321.043 401.893,321.376 402.5,321.5C 403.495,315.872 403.829,310.206 403.5,304.5C 406.833,304.5 410.167,304.5 413.5,304.5C 413.5,316.167 413.5,327.833 413.5,339.5 Z"/></g>
<g><path style="opacity:1" fill="#acacac" d="M 413.5,339.5 C 413.5,327.833 413.5,316.167 413.5,304.5C 410.167,304.5 406.833,304.5 403.5,304.5C 403.829,310.206 403.495,315.872 402.5,321.5C 401.893,321.376 401.56,321.043 401.5,320.5C 402.488,315.36 402.821,310.026 402.5,304.5C 406.298,303.517 410.298,303.183 414.5,303.5C 414.828,315.678 414.495,327.678 413.5,339.5 Z"/></g>
<g><path style="opacity:1" fill="#e6e6e6" d="M 422.5,304.5 C 426.167,304.5 429.833,304.5 433.5,304.5C 433.336,307.187 433.503,309.854 434,312.5C 437.105,309.707 440.272,307.04 443.5,304.5C 449.026,304.179 454.36,304.512 459.5,305.5C 451.82,313.18 443.82,320.513 435.5,327.5C 438.188,330.854 441.188,333.854 444.5,336.5C 446.693,337.797 449.027,337.797 451.5,336.5C 448.074,334.08 445.408,331.08 443.5,327.5C 444.251,326.427 445.251,326.26 446.5,327C 450.37,330.702 454.037,334.536 457.5,338.5C 452.695,339.487 447.695,339.821 442.5,339.5C 438.435,335.441 434.768,331.107 431.5,326.5C 437.51,320.491 443.843,314.825 450.5,309.5C 451.289,309.217 451.956,308.717 452.5,308C 449.304,307.195 446.304,307.362 443.5,308.5C 439.474,312.195 435.474,315.862 431.5,319.5C 430.517,315.702 430.183,311.702 430.5,307.5C 428.833,307.5 427.167,307.5 425.5,307.5C 424.506,317.319 424.173,327.319 424.5,337.5C 427.698,336.964 430.365,337.631 432.5,339.5C 429.167,339.5 425.833,339.5 422.5,339.5C 422.5,327.833 422.5,316.167 422.5,304.5 Z"/></g>
<g><path style="opacity:1" fill="#808080" d="M 160.5,324.5 C 160.83,318.132 160.496,311.798 159.5,305.5C 159.141,312.22 158.141,318.553 156.5,324.5C 156.334,318.158 156.5,311.825 157,305.5C 158.356,304.62 159.856,304.286 161.5,304.5C 161.824,311.354 161.491,318.021 160.5,324.5 Z"/></g>
<g><path style="opacity:1" fill="#535353" d="M 176.5,304.5 C 176.5,316.167 176.5,327.833 176.5,339.5C 179.5,339.5 182.5,339.5 185.5,339.5C 185.389,340.117 185.056,340.617 184.5,341C 181.24,341.784 178.073,341.617 175,340.5C 174.333,328.833 174.333,317.167 175,305.5C 175.383,304.944 175.883,304.611 176.5,304.5 Z"/></g>
<g><path style="opacity:1" fill="#515151" d="M 375.5,304.5 C 375.5,316.5 375.5,328.5 375.5,340.5C 378.5,340.5 381.5,340.5 384.5,340.5C 381.101,341.82 377.601,341.82 374,340.5C 373.333,328.833 373.333,317.167 374,305.5C 374.383,304.944 374.883,304.611 375.5,304.5 Z"/></g>
<g><path style="opacity:1" fill="#5c5c5c" d="M 422.5,304.5 C 422.5,316.167 422.5,327.833 422.5,339.5C 425.833,339.5 429.167,339.5 432.5,339.5C 432.389,340.117 432.056,340.617 431.5,341C 427.909,341.789 424.409,341.622 421,340.5C 420.333,328.833 420.333,317.167 421,305.5C 421.383,304.944 421.883,304.611 422.5,304.5 Z"/></g>
<g><path style="opacity:1" fill="#5c5c5c" d="M 41.5,308.5 C 51.9869,307.506 62.6536,307.172 73.5,307.5C 73.9746,310.082 73.3079,312.082 71.5,313.5C 71.5,311.833 71.5,310.167 71.5,308.5C 61.5,308.5 51.5,308.5 41.5,308.5 Z"/></g>
<g><path style="opacity:1" fill="#535353" d="M 165.5,305.5 C 165.666,312.508 165.5,319.508 165,326.5C 164.392,328.066 163.558,329.4 162.5,330.5C 162.739,321.8 163.739,313.467 165.5,305.5 Z"/></g>
<g><path style="opacity:1" fill="#5b5b5b" d="M 199.5,308.5 C 209.653,307.506 219.986,307.172 230.5,307.5C 230.784,309.415 230.451,311.081 229.5,312.5C 229.5,311.167 229.5,309.833 229.5,308.5C 219.5,308.5 209.5,308.5 199.5,308.5 Z"/></g>
<g><path style="opacity:1" fill="#545454" d="M 325.5,312.5 C 325.5,311.167 325.5,309.833 325.5,308.5C 315.833,308.5 306.167,308.5 296.5,308.5C 296.5,309.833 296.5,311.167 296.5,312.5C 295.549,311.081 295.216,309.415 295.5,307.5C 306.167,307.5 316.833,307.5 327.5,307.5C 327.923,309.781 327.256,311.448 325.5,312.5 Z"/></g>
<g><path style="opacity:1" fill="#5f5f5f" d="M 443.5,308.5 C 446.304,307.362 449.304,307.195 452.5,308C 451.956,308.717 451.289,309.217 450.5,309.5C 448.393,308.532 446.059,308.198 443.5,308.5 Z"/></g>
<g><path style="opacity:1" fill="#4d4d4d" d="M 151.5,333.5 C 146.119,334.919 141.619,333.252 138,328.5C 136.58,321.95 136.08,315.284 136.5,308.5C 135.5,308.5 134.5,308.5 133.5,308.5C 133.5,314.167 133.5,319.833 133.5,325.5C 132.51,319.69 132.177,313.69 132.5,307.5C 134.167,307.5 135.833,307.5 137.5,307.5C 137.084,313.952 137.584,320.285 139,326.5C 141.84,331.167 146.006,333.5 151.5,333.5 Z"/></g>
<g><path style="opacity:1" fill="#646464" d="M 179.5,308.5 C 179.5,308.167 179.5,307.833 179.5,307.5C 181.167,307.5 182.833,307.5 184.5,307.5C 183.868,315.573 184.535,323.24 186.5,330.5C 185.791,331.404 184.791,331.737 183.5,331.5C 183.5,323.833 183.5,316.167 183.5,308.5C 182.167,308.5 180.833,308.5 179.5,308.5 Z"/></g>
<g><path style="opacity:1" fill="#5c5c5c" d="M 252.5,308.5 C 251.247,310.503 249.581,310.503 247.5,308.5C 246.893,308.624 246.56,308.957 246.5,309.5C 245.957,309.44 245.624,309.107 245.5,308.5C 247.811,307.425 250.144,307.425 252.5,308.5 Z"/></g>
<g><path style="opacity:1" fill="#b3b3b3" d="M 179.5,307.5 C 179.5,307.833 179.5,308.167 179.5,308.5C 179.5,317.833 179.5,327.167 179.5,336.5C 181.833,336.5 184.167,336.5 186.5,336.5C 186.737,337.791 186.404,338.791 185.5,339.5C 183.721,337.656 181.388,336.99 178.5,337.5C 178.173,327.319 178.506,317.319 179.5,307.5 Z"/></g>
<g><path style="opacity:1" fill="#b5b5b5" d="M 425.5,307.5 C 425.5,307.833 425.5,308.167 425.5,308.5C 425.5,317.833 425.5,327.167 425.5,336.5C 428.167,336.5 430.833,336.5 433.5,336.5C 433.737,337.791 433.404,338.791 432.5,339.5C 430.365,337.631 427.698,336.964 424.5,337.5C 424.173,327.319 424.506,317.319 425.5,307.5 Z"/></g>
<g><path style="opacity:1" fill="#4b4b4b" d="M 425.5,308.5 C 425.5,308.167 425.5,307.833 425.5,307.5C 427.167,307.5 428.833,307.5 430.5,307.5C 430.183,311.702 430.517,315.702 431.5,319.5C 430.791,320.404 429.791,320.737 428.5,320.5C 428.5,316.5 428.5,312.5 428.5,308.5C 427.5,308.5 426.5,308.5 425.5,308.5 Z"/></g>
<g><path style="opacity:1" fill="#e2e2e2" d="M 126.5,338.5 C 122.689,339.645 118.689,339.812 114.5,339C 112.66,336.331 110.66,333.831 108.5,331.5C 97.177,333.848 92.177,329.182 93.5,317.5C 94.3589,314.548 96.3589,312.715 99.5,312C 107.167,310.268 112.167,313.101 114.5,320.5C 114.457,321.416 114.124,322.083 113.5,322.5C 112.11,319.749 110.11,317.249 107.5,315C 104.961,314.204 102.628,314.371 100.5,315.5C 96.3779,317.077 94.8779,320.077 96,324.5C 99.4205,329.913 103.92,330.913 109.5,327.5C 111.612,330.75 113.945,333.75 116.5,336.5C 118.364,337.793 120.364,337.793 122.5,336.5C 121.035,334.401 119.701,332.234 118.5,330C 122.654,318.313 118.988,310.313 107.5,306C 104.633,305.199 101.966,305.366 99.5,306.5C 87.4607,311.27 84.294,319.603 90,331.5C 94.4325,337.299 100.266,339.632 107.5,338.5C 107.737,339.791 107.404,340.791 106.5,341.5C 88.9569,340.271 81.9569,330.938 85.5,313.5C 92.707,302.161 102.374,299.661 114.5,306C 122.839,312.148 125.172,319.981 121.5,329.5C 123.432,332.366 125.099,335.366 126.5,338.5 Z"/></g>
<g><path style="opacity:1" fill="#5e5e5e" d="M 99.5,306.5 C 101.966,305.366 104.633,305.199 107.5,306C 118.988,310.313 122.654,318.313 118.5,330C 119.701,332.234 121.035,334.401 122.5,336.5C 120.364,337.793 118.364,337.793 116.5,336.5C 117.675,336.719 118.675,336.386 119.5,335.5C 118.752,333.668 117.752,332.001 116.5,330.5C 120.714,315.613 115.048,307.613 99.5,306.5 Z"/></g>
<g><path style="opacity:1" fill="#d7d7d7" d="M 263.5,321.5 C 262.883,321.389 262.383,321.056 262,320.5C 262.126,326.588 261.292,332.255 259.5,337.5C 260.452,331.925 260.786,326.259 260.5,320.5C 263.123,316.098 266.123,311.931 269.5,308C 267.833,307.333 266.167,307.333 264.5,308C 262.833,310.333 261.167,312.667 259.5,315C 258.552,315.483 257.552,315.649 256.5,315.5C 257.4,311.419 259.4,307.919 262.5,305C 266.833,304.333 271.167,304.333 275.5,305C 272.024,310.962 268.024,316.462 263.5,321.5 Z"/></g>
<g><path style="opacity:1" fill="#afafaf" d="M 199.5,311.5 C 203.833,311.5 208.167,311.5 212.5,311.5C 212.5,319.833 212.5,328.167 212.5,336.5C 213.833,336.5 215.167,336.5 216.5,336.5C 216.5,328.5 216.5,320.5 216.5,312.5C 218.099,312.232 219.432,312.566 220.5,313.5C 218.533,321.097 217.866,329.097 218.5,337.5C 216.167,337.5 213.833,337.5 211.5,337.5C 211.5,329.167 211.5,320.833 211.5,312.5C 207.298,312.817 203.298,312.483 199.5,311.5 Z"/></g>
<g><path style="opacity:1" fill="#6f6f6f" d="M 307.5,312.5 C 308.492,320.316 308.826,328.316 308.5,336.5C 309.833,336.5 311.167,336.5 312.5,336.5C 312.334,328.826 312.5,321.159 313,313.5C 314.356,312.62 315.856,312.286 317.5,312.5C 317.827,321.682 317.493,330.682 316.5,339.5C 316.831,330.808 316.498,322.141 315.5,313.5C 314.502,321.472 314.169,329.472 314.5,337.5C 312.167,337.5 309.833,337.5 307.5,337.5C 307.5,329.167 307.5,320.833 307.5,312.5 Z"/></g>
<g><path style="opacity:1" fill="#efefef" d="M 251.5,304.5 C 252.141,305.482 252.807,306.482 253.5,307.5C 253.376,308.107 253.043,308.44 252.5,308.5C 250.144,307.425 247.811,307.425 245.5,308.5C 245.624,309.107 245.957,309.44 246.5,309.5C 248.99,313.138 251.49,316.805 254,320.5C 254.499,325.823 254.666,331.156 254.5,336.5C 255.919,337.451 257.585,337.784 259.5,337.5C 261.292,332.255 262.126,326.588 262,320.5C 262.383,321.056 262.883,321.389 263.5,321.5C 263.5,327.5 263.5,333.5 263.5,339.5C 259.5,339.5 255.5,339.5 251.5,339.5C 251.666,333.491 251.499,327.491 251,321.5C 246.973,316.306 243.14,310.973 239.5,305.5C 243.445,304.509 247.445,304.176 251.5,304.5 Z"/></g>
<g><path style="opacity:1" fill="#606060" d="M 322.5,312.5 C 322.5,313.5 322.5,314.5 322.5,315.5C 324.833,315.5 327.167,315.5 329.5,315.5C 326.713,316.477 323.713,316.81 320.5,316.5C 320.157,314.517 320.824,313.183 322.5,312.5 Z"/></g>
<g><path style="opacity:1" fill="#606060" d="M 100.5,315.5 C 102.628,314.371 104.961,314.204 107.5,315C 110.11,317.249 112.11,319.749 113.5,322.5C 112.749,323.573 111.749,323.74 110.5,323C 109.144,317.825 105.81,315.325 100.5,315.5 Z"/></g>
<g><path style="opacity:1" fill="#777777" d="M 196.5,304.5 C 196.5,307.833 196.5,311.167 196.5,314.5C 200.833,314.5 205.167,314.5 209.5,314.5C 209.5,322.833 209.5,331.167 209.5,339.5C 213.167,339.5 216.833,339.5 220.5,339.5C 216.702,340.483 212.702,340.817 208.5,340.5C 208.666,332.493 208.5,324.493 208,316.5C 203.599,315.533 199.099,315.2 194.5,315.5C 194.335,312.15 194.502,308.817 195,305.5C 195.383,304.944 195.883,304.611 196.5,304.5 Z"/></g>
<g><path style="opacity:1" fill="#424242" d="M 224.5,312.5 C 224.5,313.5 224.5,314.5 224.5,315.5C 227.167,315.5 229.833,315.5 232.5,315.5C 232.389,316.117 232.056,316.617 231.5,317C 228.833,317.667 226.167,317.667 223.5,317C 222.084,315.085 222.418,313.585 224.5,312.5 Z"/></g>
<g><path style="opacity:1" fill="#9b9b9b" d="M 304.5,315.5 C 305.492,323.316 305.826,331.316 305.5,339.5C 309.167,339.5 312.833,339.5 316.5,339.5C 312.702,340.483 308.702,340.817 304.5,340.5C 304.5,332.167 304.5,323.833 304.5,315.5 Z"/></g>
<g><path style="opacity:1" fill="#4f4f4f" d="M 292.5,304.5 C 292.5,308.167 292.5,311.833 292.5,315.5C 296.5,315.5 300.5,315.5 304.5,315.5C 304.5,323.833 304.5,332.167 304.5,340.5C 303.508,332.684 303.174,324.684 303.5,316.5C 299.233,316.797 295.066,316.464 291,315.5C 290.333,312.167 290.333,308.833 291,305.5C 291.383,304.944 291.883,304.611 292.5,304.5 Z"/></g>
<g><path style="opacity:1" fill="#5e5e5e" d="M 378.5,308.5 C 380.966,307.366 383.633,307.199 386.5,308C 393.022,314.887 399.188,322.054 405,329.5C 405.5,322.174 405.666,314.841 405.5,307.5C 407.5,307.5 409.5,307.5 411.5,307.5C 411.5,317.5 411.5,327.5 411.5,337.5C 408.615,337.806 405.948,337.473 403.5,336.5C 405.5,336.5 407.5,336.5 409.5,336.5C 409.5,327.167 409.5,317.833 409.5,308.5C 408.5,308.5 407.5,308.5 406.5,308.5C 406.5,315.833 406.5,323.167 406.5,330.5C 405.448,330.649 404.448,330.483 403.5,330C 397.167,323 390.833,316 384.5,309C 382.527,308.505 380.527,308.338 378.5,308.5 Z"/></g>
<g><path style="opacity:1" fill="#5f5f5f" d="M 251.5,304.5 C 247.445,304.176 243.445,304.509 239.5,305.5C 243.14,310.973 246.973,316.306 251,321.5C 251.499,327.491 251.666,333.491 251.5,339.5C 255.5,339.5 259.5,339.5 263.5,339.5C 261.366,341.033 258.866,341.7 256,341.5C 253.906,341.464 251.906,341.131 250,340.5C 249.667,334.167 249.333,327.833 249,321.5C 244.973,316.306 241.14,310.973 237.5,305.5C 237.709,304.914 238.043,304.414 238.5,304C 243.02,303.186 247.354,303.353 251.5,304.5 Z"/></g>
<g><path style="opacity:1" fill="#5d5d5d" d="M 260.5,320.5 C 260.786,326.259 260.452,331.925 259.5,337.5C 257.585,337.784 255.919,337.451 254.5,336.5C 255.833,336.5 257.167,336.5 258.5,336.5C 258.334,331.821 258.501,327.155 259,322.5C 259.278,321.584 259.778,320.918 260.5,320.5 Z"/></g>
<g><path style="opacity:1" fill="#5e5e5e" d="M 46.5,313.5 C 46.5,317.167 46.5,320.833 46.5,324.5C 53.5,324.5 60.5,324.5 67.5,324.5C 60.0182,325.492 52.3516,325.825 44.5,325.5C 44.3347,321.818 44.5014,318.152 45,314.5C 45.3826,313.944 45.8826,313.611 46.5,313.5 Z"/></g>
<g><path style="opacity:1" fill="#d9d9d9" d="M 331.5,335.5 C 330.957,335.56 330.624,335.893 330.5,336.5C 332.973,337.797 335.307,337.797 337.5,336.5C 341.772,328.389 346.272,320.389 351,312.5C 352.333,311.167 353.667,311.167 355,312.5C 360.058,321.388 364.891,330.388 369.5,339.5C 365.818,339.665 362.152,339.499 358.5,339C 356.28,335.385 353.947,331.885 351.5,328.5C 352.251,327.427 353.251,327.26 354.5,328C 356.72,330.713 358.72,333.546 360.5,336.5C 361.568,337.434 362.901,337.768 364.5,337.5C 361.365,331.231 358.199,324.897 355,318.5C 353.421,317.2 352.255,317.534 351.5,319.5C 347.863,326.451 343.863,333.118 339.5,339.5C 334.637,339.819 329.97,339.486 325.5,338.5C 331.691,327.133 338.191,315.8 345,304.5C 345.908,302.561 347.408,301.561 349.5,301.5C 349.628,303.655 349.128,305.655 348,307.5C 342.236,316.696 336.736,326.03 331.5,335.5 Z"/></g>
<g><path style="opacity:1" fill="#5f5f5f" d="M 360.5,336.5 C 362.028,336.483 362.528,335.816 362,334.5C 359.333,329.833 356.667,325.167 354,320.5C 353.329,319.748 352.496,319.414 351.5,319.5C 352.255,317.534 353.421,317.2 355,318.5C 358.199,324.897 361.365,331.231 364.5,337.5C 362.901,337.768 361.568,337.434 360.5,336.5 Z"/></g>
<g><path style="opacity:1" fill="#5c5c5c" d="M 384.5,316.5 C 384.351,317.552 384.517,318.552 385,319.5C 390.875,325.707 396.375,332.207 401.5,339C 405.486,339.499 409.486,339.666 413.5,339.5C 413.389,340.117 413.056,340.617 412.5,341C 408.833,341.667 405.167,341.667 401.5,341C 394.959,334.128 388.793,326.961 383,319.5C 382.415,318.002 382.915,317.002 384.5,316.5 Z"/></g>
<g><path style="opacity:1" fill="#adadad" d="M 47.5,329.5 C 56.9856,328.506 66.6522,328.173 76.5,328.5C 76.815,332.371 76.4816,336.038 75.5,339.5C 75.5,336.167 75.5,332.833 75.5,329.5C 66.1667,329.5 56.8333,329.5 47.5,329.5 Z"/></g>
<g><path style="opacity:1" fill="#5b5b5b" d="M 383.5,328.5 C 383.5,331.5 383.5,334.5 383.5,337.5C 381.585,337.784 379.919,337.451 378.5,336.5C 379.5,336.5 380.5,336.5 381.5,336.5C 380.964,333.302 381.631,330.635 383.5,328.5 Z"/></g>
<g><path style="opacity:1" fill="#7c7c7c" d="M 47.5,329.5 C 55.7688,331.47 64.4355,332.136 73.5,331.5C 73.5,333.5 73.5,335.5 73.5,337.5C 62.6536,337.828 51.9869,337.494 41.5,336.5C 51.5,336.5 61.5,336.5 71.5,336.5C 71.5,335.167 71.5,333.833 71.5,332.5C 63.1667,332.5 54.8333,332.5 46.5,332.5C 46.2627,331.209 46.596,330.209 47.5,329.5 Z"/></g>
<g><path style="opacity:1" fill="#5d5d5d" d="M 443.5,327.5 C 445.408,331.08 448.074,334.08 451.5,336.5C 449.027,337.797 446.693,337.797 444.5,336.5C 445.873,336.657 447.207,336.49 448.5,336C 446.167,333.667 443.833,331.333 441.5,329C 442.044,328.283 442.711,327.783 443.5,327.5 Z"/></g>
<g><path style="opacity:1" fill="#6d6d6d" d="M 93.5,317.5 C 92.177,329.182 97.177,333.848 108.5,331.5C 110.66,333.831 112.66,336.331 114.5,339C 118.689,339.812 122.689,339.645 126.5,338.5C 127.043,338.56 127.376,338.893 127.5,339.5C 122.869,340.662 118.202,340.828 113.5,340C 111.595,338.185 109.928,336.185 108.5,334C 100.928,335.963 95.4279,333.463 92,326.5C 91.0726,323.137 91.5726,320.137 93.5,317.5 Z"/></g>
<g><path style="opacity:1" fill="#5d5d5d" d="M 351.5,328.5 C 353.947,331.885 356.28,335.385 358.5,339C 362.152,339.499 365.818,339.665 369.5,339.5C 369.389,340.117 369.056,340.617 368.5,341C 365.167,341.667 361.833,341.667 358.5,341C 355.639,338.106 353.139,334.939 351,331.5C 350.26,330.251 350.427,329.251 351.5,328.5 Z"/></g>
<g><path style="opacity:1" fill="#585858" d="M 431.5,326.5 C 434.768,331.107 438.435,335.441 442.5,339.5C 442.5,339.833 442.5,340.167 442.5,340.5C 438.609,337.114 434.776,333.447 431,329.5C 430.26,328.251 430.427,327.251 431.5,326.5 Z"/></g>
<g><path style="opacity:1" fill="#767676" d="M 331.5,335.5 C 333.265,336.461 335.265,336.795 337.5,336.5C 335.307,337.797 332.973,337.797 330.5,336.5C 330.624,335.893 330.957,335.56 331.5,335.5 Z"/></g>
<g><path style="opacity:1" fill="#5d5d5d" d="M 85.5,313.5 C 81.9569,330.938 88.9569,340.271 106.5,341.5C 92.2147,343.581 84.2147,337.248 82.5,322.5C 82.6956,319.136 83.6956,316.136 85.5,313.5 Z"/></g>
<g><path style="opacity:1" fill="#7f7f7f" d="M 38.5,304.5 C 38.5,316.167 38.5,327.833 38.5,339.5C 50.8333,339.5 63.1667,339.5 75.5,339.5C 62.6774,340.495 49.6774,340.829 36.5,340.5C 36.3335,328.829 36.5001,317.162 37,305.5C 37.3826,304.944 37.8826,304.611 38.5,304.5 Z"/></g>
<g><path style="opacity:1" fill="#939393" d="M 325.5,338.5 C 329.97,339.486 334.637,339.819 339.5,339.5C 334.652,340.814 329.652,340.814 324.5,339.5C 324.624,338.893 324.957,338.56 325.5,338.5 Z"/></g>
<g><path style="opacity:1" fill="#969696" d="M 457.5,338.5 C 458.043,338.56 458.376,338.893 458.5,339.5C 453.208,340.495 447.875,340.828 442.5,340.5C 442.5,340.167 442.5,339.833 442.5,339.5C 447.695,339.821 452.695,339.487 457.5,338.5 Z"/></g>
<g><path style="opacity:1" fill="#555555" d="M 129.5,304.5 C 129.334,311.508 129.5,318.508 130,325.5C 133.073,336.29 140.239,341.624 151.5,341.5C 139.638,343.298 131.805,338.298 128,326.5C 127.333,319.5 127.333,312.5 128,305.5C 128.383,304.944 128.883,304.611 129.5,304.5 Z"/></g>
<g><path style="opacity:1" fill="#575757" d="M 134.5,354.5 C 134.56,353.957 134.893,353.624 135.5,353.5C 136.811,357.984 136.811,362.317 135.5,366.5C 135.817,362.298 135.483,358.298 134.5,354.5 Z"/></g>
<g><path style="opacity:1" fill="#9b9b9b" d="M 382.5,353.5 C 391.561,354.377 393.561,358.544 388.5,366C 380.566,368.397 377.399,365.564 379,357.5C 379.69,355.65 380.856,354.316 382.5,353.5 Z"/></g>
<g><path style="opacity:1" fill="#838383" d="M 93.5,353.5 C 95.924,353.192 98.2573,353.526 100.5,354.5C 98.604,355.466 96.604,355.799 94.5,355.5C 94.5,356.833 94.5,358.167 94.5,359.5C 101.167,360.167 101.167,360.833 94.5,361.5C 94.7852,363.288 94.4519,364.955 93.5,366.5C 92.23,362.119 92.23,357.785 93.5,353.5 Z"/></g>
<g><path style="opacity:1" fill="#828282" d="M 111.5,353.5 C 112.8,355.223 113.467,357.39 113.5,360C 113.167,362.167 112.833,364.333 112.5,366.5C 111.508,362.217 111.174,357.884 111.5,353.5 Z"/></g>
<g><path style="opacity:1" fill="#878787" d="M 246.5,353.5 C 248.423,357.029 249.089,361.029 248.5,365.5C 250.527,365.338 252.527,365.505 254.5,366C 251.854,366.497 249.187,366.664 246.5,366.5C 246.5,362.167 246.5,357.833 246.5,353.5 Z"/></g>
<g><path style="opacity:1" fill="#7d7d7d" d="M 279.5,353.5 C 281.924,353.192 284.257,353.526 286.5,354.5C 284.955,355.452 283.288,355.785 281.5,355.5C 281.5,356.833 281.5,358.167 281.5,359.5C 288.167,360.167 288.167,360.833 281.5,361.5C 281.785,363.288 281.452,364.955 280.5,366.5C 279.508,362.217 279.174,357.884 279.5,353.5 Z"/></g>
<g><path style="opacity:1" fill="#868686" d="M 337.5,353.5 C 340.247,353.187 342.914,353.52 345.5,354.5C 343.604,355.466 341.604,355.799 339.5,355.5C 339.5,356.833 339.5,358.167 339.5,359.5C 347.5,360.167 347.5,360.833 339.5,361.5C 339.5,362.833 339.5,364.167 339.5,365.5C 341.527,365.338 343.527,365.505 345.5,366C 342.854,366.497 340.187,366.664 337.5,366.5C 337.5,362.167 337.5,357.833 337.5,353.5 Z"/></g>
<g><path style="opacity:1" fill="#9d9d9d" d="M 178.5,353.5 C 179.647,357.646 179.814,361.98 179,366.5C 176.333,363.833 173.667,361.167 171,358.5C 170.818,361.226 170.318,363.893 169.5,366.5C 168.167,362.5 168.167,358.5 169.5,354.5C 172.854,357.021 175.688,360.021 178,363.5C 178.498,360.183 178.665,356.85 178.5,353.5 Z"/></g>
<g><path style="opacity:1" fill="#8d8d8d" d="M 318.5,353.5 C 320.924,353.192 323.257,353.526 325.5,354.5C 323.604,355.466 321.604,355.799 319.5,355.5C 319.5,356.833 319.5,358.167 319.5,359.5C 326.167,359.833 326.167,360.167 319.5,360.5C 319.5,362.167 319.5,363.833 319.5,365.5C 321.527,365.338 323.527,365.505 325.5,366C 322.854,366.497 320.187,366.664 317.5,366.5C 317.231,362.069 317.564,357.735 318.5,353.5 Z"/></g>
<g><path style="opacity:1" fill="#0c0c0c" d="M 381.5,355.5 C 389.44,354.937 391.44,358.104 387.5,365C 379.999,365.33 377.999,362.164 381.5,355.5 Z"/></g>
<g><path style="opacity:1" fill="#a4a4a4" d="M 229.5,353.5 C 231.545,356.579 233.378,359.912 235,363.5C 235.749,364.635 235.583,365.635 234.5,366.5C 231.707,361.244 228.873,361.244 226,366.5C 226.432,362.027 227.599,357.693 229.5,353.5 Z"/></g>
<g><path style="opacity:1" fill="#a2a2a2" d="M 134.5,354.5 C 135.483,358.298 135.817,362.298 135.5,366.5C 132.22,363.957 129.387,360.957 127,357.5C 126.821,360.553 126.321,363.553 125.5,366.5C 124.167,362.167 124.167,357.833 125.5,353.5C 128.521,356.686 131.354,360.02 134,363.5C 134.498,360.518 134.665,357.518 134.5,354.5 Z"/></g>
<g><path style="opacity:1" fill="#898989" d="M 298.5,353.5 C 304.71,353.041 306.71,355.708 304.5,361.5C 306.67,367.815 306.003,367.981 302.5,362C 301.552,361.517 300.552,361.351 299.5,361.5C 299.66,363.199 299.494,364.866 299,366.5C 298.501,362.179 298.334,357.846 298.5,353.5 Z"/></g>
<g><path style="opacity:1" fill="#060606" d="M 300.5,355.5 C 301.5,355.5 302.5,355.5 303.5,355.5C 303.5,356.833 303.5,358.167 303.5,359.5C 302.5,359.5 301.5,359.5 300.5,359.5C 300.5,358.167 300.5,356.833 300.5,355.5 Z"/></g>
<g><path style="opacity:1" fill="#a0a0a0" d="M 402.5,354.5 C 404.839,356.173 406.839,358.173 408.5,360.5C 410.858,358.976 412.691,356.976 414,354.5C 414.667,358.5 414.667,362.5 414,366.5C 413.667,363.833 413.333,361.167 413,358.5C 411.49,360.208 409.99,361.874 408.5,363.5C 406.808,361.641 405.308,359.641 404,357.5C 403.667,360.5 403.333,363.5 403,366.5C 402.501,362.514 402.334,358.514 402.5,354.5 Z"/></g>
<g><path style="opacity:1" fill="#2a2a2a" d="M 229.5,357.5 C 231.104,358.287 231.771,359.62 231.5,361.5C 230.325,361.719 229.325,361.386 228.5,360.5C 229.127,359.583 229.461,358.583 229.5,357.5 Z"/></g>
<g><path style="opacity:1" fill="#acacac" d="M 151.5,354.5 C 152.376,354.369 153.043,354.702 153.5,355.5C 155.303,359.071 156.47,362.738 157,366.5C 155.812,365.437 155.312,364.103 155.5,362.5C 151.842,361.872 149.342,363.206 148,366.5C 148.239,362.278 149.405,358.278 151.5,354.5 Z"/></g>
<g><path style="opacity:1" fill="#2d2d2d" d="M 151.5,357.5 C 153.104,358.287 153.771,359.62 153.5,361.5C 152.325,361.719 151.325,361.386 150.5,360.5C 151.127,359.583 151.461,358.583 151.5,357.5 Z"/></g>
<g><path style="opacity:1" fill="#a3a3a3" d="M 357.5,353.5 C 363.391,352.43 366.724,354.763 367.5,360.5C 366.434,365.936 363.101,367.936 357.5,366.5C 357.5,362.167 357.5,357.833 357.5,353.5 Z"/></g>
<g><path style="opacity:1" fill="#111111" d="M 358.5,355.5 C 365.628,355.706 367.294,358.873 363.5,365C 361.866,365.494 360.199,365.66 358.5,365.5C 358.5,362.167 358.5,358.833 358.5,355.5 Z"/></g>
<g><path style="opacity:1" fill="#9c9c9c" d="M 194.5,353.5 C 202.32,354.484 202.32,355.317 194.5,356C 191.01,362.338 193.01,365.672 200.5,366C 193.718,367.875 190.552,365.375 191,358.5C 191.997,356.677 193.164,355.01 194.5,353.5 Z"/></g>
</svg>
